<svg xmlns="http://www.w3.org/2000/svg" xmlns:xlink="http://www.w3.org/1999/xlink" width="1920" zoomAndPan="magnify" viewBox="0 0 1440 809.999993" height="1080" preserveAspectRatio="xMidYMid meet" version="1.0"><defs><g/><clipPath id="5a50f90750"><path d="M 422.953125 307.839844 L 479.054688 307.839844 L 479.054688 363.9375 L 422.953125 363.9375 Z M 422.953125 307.839844 " clip-rule="nonzero"/></clipPath><clipPath id="5b11cee3e0"><path d="M 422.953125 335.886719 C 422.953125 351.378906 435.511719 363.9375 451.003906 363.9375 C 466.496094 363.9375 479.054688 351.378906 479.054688 335.886719 C 479.054688 320.398438 466.496094 307.839844 451.003906 307.839844 C 435.511719 307.839844 422.953125 320.398438 422.953125 335.886719 Z M 422.953125 335.886719 " clip-rule="nonzero"/></clipPath><clipPath id="32ae910abc"><path d="M 315.164062 417.097656 L 371.265625 417.097656 L 371.265625 473.199219 L 315.164062 473.199219 Z M 315.164062 417.097656 " clip-rule="nonzero"/></clipPath><clipPath id="55c916ceeb"><path d="M 371.972656 357.878906 L 428.074219 357.878906 L 428.074219 413.980469 L 371.972656 413.980469 Z M 371.972656 357.878906 " clip-rule="nonzero"/></clipPath><clipPath id="e13e91e35a"><path d="M 371.972656 376.734375 L 371.972656 395.125 C 371.972656 400.128906 373.957031 404.921875 377.492188 408.457031 C 381.03125 411.996094 385.824219 413.980469 390.828125 413.980469 L 409.21875 413.980469 C 414.21875 413.980469 419.015625 411.996094 422.550781 408.457031 C 426.085938 404.921875 428.074219 400.128906 428.074219 395.125 L 428.074219 376.734375 C 428.074219 371.734375 426.085938 366.9375 422.550781 363.402344 C 419.015625 359.867188 414.21875 357.878906 409.21875 357.878906 L 390.828125 357.878906 C 385.824219 357.878906 381.03125 359.867188 377.492188 363.402344 C 373.957031 366.9375 371.972656 371.734375 371.972656 376.734375 Z M 371.972656 376.734375 " clip-rule="nonzero"/></clipPath><clipPath id="6845856e70"><path d="M 371.972656 357.882812 L 428.070312 357.882812 L 428.070312 413.980469 L 371.972656 413.980469 Z M 371.972656 357.882812 " clip-rule="nonzero"/></clipPath><clipPath id="cdd7ebefce"><path d="M 371.972656 376.738281 L 371.972656 395.128906 C 371.972656 400.128906 373.957031 404.921875 377.492188 408.460938 C 381.03125 411.996094 385.824219 413.980469 390.824219 413.980469 L 409.214844 413.980469 C 414.214844 413.980469 419.011719 411.996094 422.546875 408.460938 C 426.082031 404.921875 428.070312 400.128906 428.070312 395.128906 L 428.070312 376.738281 C 428.070312 371.738281 426.082031 366.941406 422.546875 363.40625 C 419.011719 359.871094 414.214844 357.882812 409.214844 357.882812 L 390.824219 357.882812 C 385.824219 357.882812 381.03125 359.871094 377.492188 363.40625 C 373.957031 366.941406 371.972656 371.738281 371.972656 376.738281 Z M 371.972656 376.738281 " clip-rule="nonzero"/></clipPath></defs><g fill="#ffffff" fill-opacity="1"><g transform="translate(530.561692, 474.351867)"><g><path d="M 13.34375 0 L 13.34375 -100.859375 L 39.46875 -100.859375 L 40.03125 -81.59375 L 36.03125 -80.84375 C 37.425781 -84.144531 39.300781 -87.128906 41.65625 -89.796875 C 44.007812 -92.460938 46.710938 -94.75 49.765625 -96.65625 C 52.816406 -98.5625 56.054688 -100.054688 59.484375 -101.140625 C 62.910156 -102.222656 66.34375 -102.765625 69.78125 -102.765625 C 74.988281 -102.765625 79.691406 -101.9375 83.890625 -100.28125 C 88.085938 -98.632812 91.644531 -96.0625 94.5625 -92.5625 C 97.488281 -89.070312 99.773438 -84.460938 101.421875 -78.734375 L 97.234375 -79.125 L 98.5625 -82.171875 C 100.21875 -85.222656 102.316406 -88.019531 104.859375 -90.5625 C 107.398438 -93.101562 110.257812 -95.265625 113.4375 -97.046875 C 116.613281 -98.828125 119.914062 -100.222656 123.34375 -101.234375 C 126.78125 -102.253906 130.148438 -102.765625 133.453125 -102.765625 C 141.335938 -102.765625 147.882812 -101.207031 153.09375 -98.09375 C 158.300781 -94.976562 162.207031 -90.304688 164.8125 -84.078125 C 167.425781 -77.847656 168.734375 -70.222656 168.734375 -61.203125 L 168.734375 0 L 141.65625 0 L 141.65625 -59.296875 C 141.65625 -63.867188 141.019531 -67.613281 139.75 -70.53125 C 138.476562 -73.457031 136.632812 -75.648438 134.21875 -77.109375 C 131.800781 -78.578125 128.6875 -79.3125 124.875 -79.3125 C 121.957031 -79.3125 119.257812 -78.832031 116.78125 -77.875 C 114.300781 -76.925781 112.140625 -75.59375 110.296875 -73.875 C 108.453125 -72.164062 107.019531 -70.132812 106 -67.78125 C 104.988281 -65.425781 104.484375 -62.914062 104.484375 -60.25 L 104.484375 0 L 77.21875 0 L 77.21875 -59.484375 C 77.21875 -63.679688 76.582031 -67.269531 75.3125 -70.25 C 74.039062 -73.238281 72.195312 -75.492188 69.78125 -77.015625 C 67.363281 -78.546875 64.375 -79.3125 60.8125 -79.3125 C 57.894531 -79.3125 55.195312 -78.832031 52.71875 -77.875 C 50.238281 -76.925781 48.109375 -75.59375 46.328125 -73.875 C 44.546875 -72.164062 43.144531 -70.164062 42.125 -67.875 C 41.113281 -65.582031 40.609375 -63.101562 40.609375 -60.4375 L 40.609375 0 Z M 13.34375 0 "/></g></g></g><g fill="#ffffff" fill-opacity="1"><g transform="translate(711.489217, 474.351867)"><g><path d="M 61.390625 1.90625 C 50.460938 1.90625 40.898438 -0.316406 32.703125 -4.765625 C 24.503906 -9.210938 18.144531 -15.3125 13.625 -23.0625 C 9.113281 -30.820312 6.859375 -39.722656 6.859375 -49.765625 C 6.859375 -57.640625 8.128906 -64.816406 10.671875 -71.296875 C 13.210938 -77.785156 16.769531 -83.410156 21.34375 -88.171875 C 25.925781 -92.941406 31.363281 -96.628906 37.65625 -99.234375 C 43.945312 -101.835938 50.78125 -103.140625 58.15625 -103.140625 C 65.019531 -103.140625 71.375 -101.867188 77.21875 -99.328125 C 83.0625 -96.785156 88.113281 -93.257812 92.375 -88.75 C 96.632812 -84.238281 99.90625 -78.898438 102.1875 -72.734375 C 104.476562 -66.566406 105.5 -59.925781 105.25 -52.8125 L 105.046875 -44.421875 L 24.015625 -44.421875 L 19.640625 -61.015625 L 82.75 -61.015625 L 79.6875 -57.578125 L 79.6875 -61.765625 C 79.4375 -65.203125 78.328125 -68.285156 76.359375 -71.015625 C 74.390625 -73.753906 71.878906 -75.914062 68.828125 -77.5 C 65.773438 -79.09375 62.34375 -79.890625 58.53125 -79.890625 C 52.9375 -79.890625 48.203125 -78.804688 44.328125 -76.640625 C 40.453125 -74.484375 37.492188 -71.304688 35.453125 -67.109375 C 33.421875 -62.910156 32.40625 -57.828125 32.40625 -51.859375 C 32.40625 -45.753906 33.707031 -40.476562 36.3125 -36.03125 C 38.925781 -31.582031 42.613281 -28.117188 47.375 -25.640625 C 52.144531 -23.160156 57.769531 -21.921875 64.25 -21.921875 C 68.695312 -21.921875 72.765625 -22.617188 76.453125 -24.015625 C 80.140625 -25.421875 84.082031 -27.835938 88.28125 -31.265625 L 101.234375 -13.15625 C 97.546875 -9.851562 93.476562 -7.085938 89.03125 -4.859375 C 84.582031 -2.640625 80.003906 -0.957031 75.296875 0.1875 C 70.597656 1.332031 65.960938 1.90625 61.390625 1.90625 Z M 61.390625 1.90625 "/></g></g></g><g fill="#ffffff" fill-opacity="1"><g transform="translate(823.210537, 474.351867)"><g><path d="M 13.34375 0 L 13.34375 -100.859375 L 39.46875 -100.859375 L 40.03125 -81.59375 L 36.03125 -80.84375 C 37.425781 -84.144531 39.300781 -87.128906 41.65625 -89.796875 C 44.007812 -92.460938 46.710938 -94.75 49.765625 -96.65625 C 52.816406 -98.5625 56.054688 -100.054688 59.484375 -101.140625 C 62.910156 -102.222656 66.34375 -102.765625 69.78125 -102.765625 C 74.988281 -102.765625 79.691406 -101.9375 83.890625 -100.28125 C 88.085938 -98.632812 91.644531 -96.0625 94.5625 -92.5625 C 97.488281 -89.070312 99.773438 -84.460938 101.421875 -78.734375 L 97.234375 -79.125 L 98.5625 -82.171875 C 100.21875 -85.222656 102.316406 -88.019531 104.859375 -90.5625 C 107.398438 -93.101562 110.257812 -95.265625 113.4375 -97.046875 C 116.613281 -98.828125 119.914062 -100.222656 123.34375 -101.234375 C 126.78125 -102.253906 130.148438 -102.765625 133.453125 -102.765625 C 141.335938 -102.765625 147.882812 -101.207031 153.09375 -98.09375 C 158.300781 -94.976562 162.207031 -90.304688 164.8125 -84.078125 C 167.425781 -77.847656 168.734375 -70.222656 168.734375 -61.203125 L 168.734375 0 L 141.65625 0 L 141.65625 -59.296875 C 141.65625 -63.867188 141.019531 -67.613281 139.75 -70.53125 C 138.476562 -73.457031 136.632812 -75.648438 134.21875 -77.109375 C 131.800781 -78.578125 128.6875 -79.3125 124.875 -79.3125 C 121.957031 -79.3125 119.257812 -78.832031 116.78125 -77.875 C 114.300781 -76.925781 112.140625 -75.59375 110.296875 -73.875 C 108.453125 -72.164062 107.019531 -70.132812 106 -67.78125 C 104.988281 -65.425781 104.484375 -62.914062 104.484375 -60.25 L 104.484375 0 L 77.21875 0 L 77.21875 -59.484375 C 77.21875 -63.679688 76.582031 -67.269531 75.3125 -70.25 C 74.039062 -73.238281 72.195312 -75.492188 69.78125 -77.015625 C 67.363281 -78.546875 64.375 -79.3125 60.8125 -79.3125 C 57.894531 -79.3125 55.195312 -78.832031 52.71875 -77.875 C 50.238281 -76.925781 48.109375 -75.59375 46.328125 -73.875 C 44.546875 -72.164062 43.144531 -70.164062 42.125 -67.875 C 41.113281 -65.582031 40.609375 -63.101562 40.609375 -60.4375 L 40.609375 0 Z M 13.34375 0 "/></g></g></g><g fill="#ffffff" fill-opacity="1"><g transform="translate(1004.138084, 474.351867)"><g><path d="M 60.4375 1.90625 C 50.144531 1.90625 40.960938 -0.347656 32.890625 -4.859375 C 24.816406 -9.367188 18.457031 -15.5625 13.8125 -23.4375 C 9.175781 -31.320312 6.859375 -40.351562 6.859375 -50.53125 C 6.859375 -60.695312 9.175781 -69.71875 13.8125 -77.59375 C 18.457031 -85.476562 24.816406 -91.675781 32.890625 -96.1875 C 40.960938 -100.695312 50.144531 -102.953125 60.4375 -102.953125 C 70.601562 -102.953125 79.722656 -100.695312 87.796875 -96.1875 C 95.867188 -91.675781 102.191406 -85.476562 106.765625 -77.59375 C 111.335938 -69.71875 113.625 -60.695312 113.625 -50.53125 C 113.625 -40.351562 111.335938 -31.320312 106.765625 -23.4375 C 102.191406 -15.5625 95.867188 -9.367188 87.796875 -4.859375 C 79.722656 -0.347656 70.601562 1.90625 60.4375 1.90625 Z M 60.4375 -21.734375 C 65.394531 -21.734375 69.84375 -22.972656 73.78125 -25.453125 C 77.71875 -27.929688 80.800781 -31.363281 83.03125 -35.75 C 85.257812 -40.132812 86.304688 -45.0625 86.171875 -50.53125 C 86.304688 -56.113281 85.257812 -61.097656 83.03125 -65.484375 C 80.800781 -69.867188 77.71875 -73.300781 73.78125 -75.78125 C 69.84375 -78.257812 65.394531 -79.5 60.4375 -79.5 C 55.351562 -79.5 50.835938 -78.226562 46.890625 -75.6875 C 42.953125 -73.144531 39.835938 -69.710938 37.546875 -65.390625 C 35.265625 -61.066406 34.1875 -56.113281 34.3125 -50.53125 C 34.1875 -45.0625 35.265625 -40.132812 37.546875 -35.75 C 39.835938 -31.363281 42.953125 -27.929688 46.890625 -25.453125 C 50.835938 -22.972656 55.351562 -21.734375 60.4375 -21.734375 Z M 60.4375 -21.734375 "/></g></g></g><g clip-path="url(#5a50f90750)"><g clip-path="url(#5b11cee3e0)"><path fill="#5271ff" d="M 422.953125 363.9375 L 422.953125 307.839844 L 479.054688 307.839844 L 479.054688 363.9375 Z M 422.953125 363.9375 " fill-opacity="1" fill-rule="nonzero"/></g></g><g clip-path="url(#32ae910abc)"><path fill="#ff3131" d="M 315.164062 473.199219 L 315.164062 417.097656 L 371.265625 417.097656 L 371.265625 473.199219 Z M 315.164062 473.199219 " fill-opacity="1" fill-rule="nonzero"/></g><g clip-path="url(#55c916ceeb)"><g clip-path="url(#e13e91e35a)"><path fill="#00bf63" d="M 371.972656 413.980469 L 371.972656 357.878906 L 428.074219 357.878906 L 428.074219 413.980469 Z M 371.972656 413.980469 " fill-opacity="1" fill-rule="nonzero"/></g></g><g clip-path="url(#6845856e70)"><g clip-path="url(#cdd7ebefce)"><path stroke-linecap="butt" transform="matrix(0, -0.75, 0.75, 0, 371.971658, 413.981303)" fill="none" stroke-linejoin="miter" d="M 49.657365 0.00133112 L 25.13653 0.00133112 C 18.469863 0.00133112 12.079238 2.647165 7.360488 7.360706 C 2.646946 12.079457 0.00111256 18.470082 0.00111256 25.136749 L 0.00111256 49.657584 C 0.00111256 56.324251 2.646946 62.720084 7.360488 67.433626 C 12.079238 72.147168 18.469863 74.79821 25.13653 74.79821 L 49.657365 74.79821 C 56.324032 74.79821 62.719866 72.147168 67.433408 67.433626 C 72.14695 62.720084 74.797991 56.324251 74.797991 49.657584 L 74.797991 25.136749 C 74.797991 18.470082 72.14695 12.079457 67.433408 7.360706 C 62.719866 2.647165 56.324032 0.00133112 49.657365 0.00133112 Z M 49.657365 0.00133112 " stroke="#00bf63" stroke-width="50" stroke-opacity="1" stroke-miterlimit="4"/></g></g></svg>